<?xml version="1.0" encoding="utf-8"?>
<!-- Generator: Adobe Illustrator 17.0.2, SVG Export Plug-In . SVG Version: 6.00 Build 0)  -->
<!DOCTYPE svg PUBLIC "-//W3C//DTD SVG 1.1//EN" "http://www.w3.org/Graphics/SVG/1.1/DTD/svg11.dtd">
<svg version="1.1" xmlns="http://www.w3.org/2000/svg" xmlns:xlink="http://www.w3.org/1999/xlink" x="0px" y="0px"
	 width="181.345px" height="50px" viewBox="211.155 389.5 181.345 50" enable-background="new 211.155 389.5 181.345 50"
	 xml:space="preserve">
<g id="Layer_2" display="none">
	
		<rect x="212.155" y="389.5" display="inline" fill="#0C0C0C" stroke="#000000" stroke-miterlimit="10" width="180.345" height="50"/>
</g>
<g id="Layer_1">
	
		<line fill="none" stroke="#FFFFFF" stroke-width="3" stroke-miterlimit="10" x1="239.467" y1="415.771" x2="228.363" y2="404.998"/>
	<polyline fill="none" stroke="#FFFFFF" stroke-width="6" stroke-linecap="round" stroke-miterlimit="10" points="233.337,404.998 
		228.363,404.998 228.363,410.397 	"/>
	<circle fill="#FFFFFF" stroke="#FFFFFF" stroke-miterlimit="10" cx="239.467" cy="415.771" r="3.05"/>
	
		<line fill="none" stroke="#FFFFFF" stroke-width="3" stroke-miterlimit="10" x1="230.205" y1="420.489" x2="239.467" y2="415.771"/>
	<circle fill="#FFFFFF" stroke="#FFFFFF" stroke-miterlimit="10" cx="230.205" cy="420.489" r="3.05"/>
	<line fill="none" stroke="#FFFFFF" stroke-width="3" stroke-miterlimit="10" x1="236.597" y1="426.88" x2="230.205" y2="420.489"/>
	<circle fill="#FFFFFF" stroke="#FFFFFF" stroke-miterlimit="10" cx="238.597" cy="428.88" r="3.05"/>
	<g>
		<path fill="#FFFFFF" d="M253.908,405.955h-7.148l0.697-5.06h20.119l-0.657,5.06h-7.228l-2.803,22.007h-5.782L253.908,405.955z"/>
		<path fill="#FFFFFF" d="M279.632,415.954c0.436,7.189-4.145,12.449-10.971,12.449c-4.979,0-8.51-3.252-8.804-8.111
			c-0.414-6.827,3.987-12.409,10.973-12.409C276.091,407.882,279.362,411.497,279.632,415.954z M265.833,420.171
			c0.139,2.289,1.356,3.815,3.364,3.815c3.172,0,4.66-4.619,4.455-7.992c-0.11-1.807-0.989-3.735-3.318-3.735
			C267,412.259,265.608,417.118,265.833,420.171z"/>
		<path fill="#FFFFFF" d="M278.692,435.913l2.563-19.999c0.301-2.329,0.586-5.582,0.705-7.59h5.18l-0.189,2.851h0.08
			c1.477-2.128,3.736-3.293,6.105-3.293c4.257,0,6.512,3.413,6.755,7.429c0.413,6.826-3.745,13.092-10.571,13.092
			c-1.607,0-2.996-0.402-3.703-0.803h-0.08l-1.103,8.313H278.692z M286.145,423.062c0.679,0.603,1.584,0.964,2.708,0.964
			c3.092,0,5.234-4.417,5-8.272c-0.095-1.566-0.837-3.212-2.725-3.212c-2.168,0-4.028,2.45-4.517,6.305L286.145,423.062z"/>
		<path fill="#FFFFFF" d="M326.337,411.737c0.3,4.939-1.137,9.718-4.044,12.77c-2.382,2.45-5.707,3.895-9.763,3.895
			c-7.027,0-11.265-4.979-11.647-11.284c-0.297-4.899,1.215-9.758,4.203-12.81c2.384-2.409,5.75-3.855,9.645-3.855
			C321.879,400.453,325.946,405.272,326.337,411.737z M309.806,407.32c-2.04,2.128-2.989,6.345-2.792,9.597
			c0.231,3.815,2.131,6.666,6.066,6.666c1.687,0,3.247-0.763,4.418-1.968c1.999-2.128,2.894-6.586,2.704-9.718
			c-0.204-3.373-1.607-6.626-5.863-6.626C312.533,405.272,310.973,406.035,309.806,407.32z"/>
		<path fill="#FFFFFF" d="M329.458,401.417c1.7-0.442,4.414-0.723,7.024-0.723c2.409,0,5.244,0.402,7.298,1.807
			c1.882,1.245,3.122,3.133,3.279,5.742c0.207,3.413-1.203,5.983-3.232,7.63c-2.104,1.726-5.19,2.49-8.483,2.49
			c-0.964,0-1.772-0.08-2.379-0.161l-1.256,9.759h-5.663L329.458,401.417z M333.564,413.504c0.61,0.121,1.257,0.201,2.221,0.201
			c3.493,0,5.646-2.249,5.483-4.939c-0.158-2.61-2.097-3.453-4.346-3.453c-1.084,0-1.842,0.08-2.317,0.201L333.564,413.504z"/>
		<path fill="#FFFFFF" d="M349.28,401.417c1.7-0.442,4.414-0.723,7.024-0.723c2.409,0,5.244,0.402,7.298,1.807
			c1.882,1.245,3.121,3.133,3.279,5.742c0.206,3.413-1.204,5.983-3.232,7.63c-2.104,1.726-5.19,2.49-8.483,2.49
			c-0.964,0-1.772-0.08-2.379-0.161l-1.256,9.759h-5.663L349.28,401.417z M353.386,413.504c0.61,0.121,1.257,0.201,2.221,0.201
			c3.493,0,5.646-2.249,5.483-4.939c-0.158-2.61-2.096-3.453-4.346-3.453c-1.084,0-1.842,0.08-2.317,0.201L353.386,413.504z"/>
		<path fill="#FFFFFF" d="M367.282,421.697c1.664,0.964,4,1.726,6.489,1.726c2.249,0,4.234-1.044,4.105-3.172
			c-0.093-1.526-1.318-2.53-3.885-3.815c-2.987-1.566-5.843-3.654-6.058-7.188c-0.331-5.462,4.246-8.794,10.149-8.794
			c3.293,0,5.264,0.723,6.468,1.365l-1.515,4.819c-0.913-0.481-2.886-1.245-5.132-1.205c-2.691,0-4.014,1.365-3.923,2.851
			c0.095,1.566,1.8,2.53,4.167,3.815c3.398,1.727,5.619,3.935,5.814,7.149c0.365,6.023-4.427,9.116-10.45,9.116
			c-3.775,0-6.523-0.964-7.867-1.927L367.282,421.697z"/>
	</g>
</g>
</svg>
